<?xml version="1.0" standalone="no"?>
<!DOCTYPE svg PUBLIC "-//W3C//DTD SVG 20010904//EN"
 "http://www.w3.org/TR/2001/REC-SVG-20010904/DTD/svg10.dtd">
<svg version="1.0" xmlns="http://www.w3.org/2000/svg"
 width="289.000000pt" height="200.000000pt" viewBox="0 0 289.000000 200.000000"
 preserveAspectRatio="xMidYMid meet">

<g transform="translate(0.000000,200.000000) scale(0.100000,-0.100000)"
fill="#1a1a1a" stroke="none">
<path d="M1380 1327 l0 -165 -52 -11 c-162 -35 -258 -158 -246 -315 7 -87 41
-158 100 -211 70 -63 146 -85 289 -85 l109 0 0 304 0 304 37 7 c79 15 155 73
169 131 9 34 -2 91 -21 121 -9 14 -42 37 -73 51 -50 24 -72 27 -184 30 l-128
4 0 -165z m268 129 c46 -24 65 -73 60 -157 -6 -106 -50 -139 -183 -139 l-75 0
0 161 0 162 83 -5 c51 -3 95 -11 115 -22z m-230 -776 l37 0 -3 235 -3 235 31
0 30 0 0 -300 0 -300 -60 0 c-79 0 -158 17 -198 43 -19 13 -44 45 -60 77 -25
51 -27 64 -27 185 0 123 1 133 28 180 33 59 78 93 138 103 l44 8 3 -233 2
-233 38 0z"/>
</g>
</svg>
