<svg xmlns="http://www.w3.org/2000/svg" xmlns:xlink="http://www.w3.org/1999/xlink" width="475" zoomAndPan="magnify" viewBox="235 215 475 145" height="145" preserveAspectRatio="xMidYMid meet" version="1.0"><defs><g/></defs><path fill="#f5f0eb" d="M 286.71875 246.53125 L 286.71875 267.621094 L 280.078125 269.027344 C 259.394531 273.5 247.140625 289.222656 248.671875 309.289062 C 249.566406 320.410156 253.90625 329.488281 261.4375 336.261719 C 270.375 344.3125 280.078125 347.125 298.335938 347.125 L 312.253906 347.125 L 312.253906 269.410156 L 316.980469 268.515625 C 327.066406 266.597656 336.769531 259.1875 338.554688 251.773438 C 339.703125 247.425781 338.300781 240.140625 335.875 236.304688 C 334.726562 234.515625 330.511719 231.578125 326.554688 229.789062 C 320.171875 226.71875 317.363281 226.335938 303.0625 225.953125 L 286.71875 225.441406 Z M 320.9375 230.042969 C 326.808594 233.109375 329.234375 239.375 328.597656 250.109375 C 327.832031 263.660156 322.214844 267.878906 305.230469 267.878906 L 295.65625 267.878906 L 295.65625 226.589844 L 306.253906 227.230469 C 312.765625 227.613281 318.382812 228.636719 320.9375 230.042969 Z M 291.570312 329.230469 L 296.292969 329.230469 L 295.910156 299.191406 L 295.527344 269.15625 L 303.316406 269.15625 L 303.316406 345.847656 L 295.65625 345.847656 C 285.570312 345.847656 275.484375 343.675781 270.375 340.351562 C 267.949219 338.691406 264.757812 334.597656 262.714844 330.507812 C 259.523438 323.992188 259.269531 322.328125 259.269531 306.863281 C 259.269531 291.140625 259.394531 289.863281 262.84375 283.855469 C 267.058594 276.3125 272.800781 271.96875 280.464844 270.691406 L 286.082031 269.667969 L 286.464844 299.449219 L 286.71875 329.230469 Z M 291.570312 329.230469 " fill-opacity="1" fill-rule="nonzero"/><g fill="#f5f0eb" fill-opacity="1"><g transform="translate(377.072002, 306.6171)"><g><path d="M 7.5 -11.34375 L 7.5 -4.296875 C 7.5 -2.679688 7.722656 -1.671875 8.171875 -1.265625 C 8.628906 -0.859375 9.257812 -0.65625 10.0625 -0.65625 L 10.984375 -0.65625 L 10.984375 0 L 0.609375 0 L 0.609375 -0.65625 L 1.515625 -0.65625 C 2.523438 -0.65625 3.203125 -0.90625 3.546875 -1.40625 C 3.898438 -1.914062 4.078125 -2.878906 4.078125 -4.296875 L 4.078125 -19.9375 C 4.078125 -21.550781 3.851562 -22.554688 3.40625 -22.953125 C 2.957031 -23.359375 2.328125 -23.5625 1.515625 -23.5625 L 0.609375 -23.5625 L 0.609375 -24.234375 L 9.484375 -24.234375 C 12.835938 -24.234375 15.269531 -23.578125 16.78125 -22.265625 C 18.300781 -20.960938 19.0625 -19.382812 19.0625 -17.53125 C 19.0625 -15.457031 18.382812 -13.820312 17.03125 -12.625 C 15.6875 -11.4375 13.867188 -10.84375 11.578125 -10.84375 C 10.410156 -10.84375 9.050781 -11.007812 7.5 -11.34375 Z M 7.5 -22.4375 L 7.5 -12.359375 C 8.757812 -12.117188 9.738281 -12 10.4375 -12 C 11.875 -12 12.992188 -12.535156 13.796875 -13.609375 C 14.597656 -14.679688 15 -15.867188 15 -17.171875 C 15 -18.984375 14.515625 -20.367188 13.546875 -21.328125 C 12.578125 -22.296875 11.34375 -22.78125 9.84375 -22.78125 C 9.238281 -22.78125 8.457031 -22.664062 7.5 -22.4375 Z M 7.5 -22.4375 "/></g></g></g><g fill="#f5f0eb" fill-opacity="1"><g transform="translate(397.424873, 306.6171)"><g><path d="M 21.5 -6.078125 L 19.421875 0 L 0.75 0 L 0.75 -0.65625 L 1.609375 -0.65625 C 2.460938 -0.65625 3.109375 -0.875 3.546875 -1.3125 C 3.992188 -1.75 4.21875 -2.734375 4.21875 -4.265625 L 4.21875 -20 C 4.21875 -21.644531 4 -22.648438 3.5625 -23.015625 C 3.132812 -23.378906 2.484375 -23.5625 1.609375 -23.5625 L 0.75 -23.5625 L 0.75 -24.234375 L 19.421875 -24.234375 L 19.6875 -18.921875 L 18.984375 -18.921875 C 18.671875 -20.566406 18.21875 -21.640625 17.625 -22.140625 C 17.039062 -22.648438 15.929688 -22.90625 14.296875 -22.90625 L 7.640625 -22.90625 L 7.640625 -13.328125 L 12.96875 -13.328125 C 14.207031 -13.328125 15.128906 -13.53125 15.734375 -13.9375 C 16.347656 -14.34375 16.695312 -15.3125 16.78125 -16.84375 L 17.4375 -16.84375 L 17.4375 -8.421875 L 16.78125 -8.421875 C 16.625 -10.054688 16.210938 -11.0625 15.546875 -11.4375 C 14.890625 -11.820312 14.03125 -12.015625 12.96875 -12.015625 L 7.640625 -12.015625 L 7.640625 -4.03125 C 7.640625 -2.882812 7.753906 -2.144531 7.984375 -1.8125 C 8.222656 -1.488281 8.78125 -1.328125 9.65625 -1.328125 L 13.75 -1.328125 C 15.445312 -1.328125 16.773438 -1.597656 17.734375 -2.140625 C 18.691406 -2.679688 19.710938 -3.992188 20.796875 -6.078125 Z M 21.5 -6.078125 "/></g></g></g><g fill="#f5f0eb" fill-opacity="1"><g transform="translate(419.767021, 306.6171)"><g><path d="M 26.015625 0 L 16.453125 0 L 16.453125 -0.65625 C 18.097656 -0.738281 18.921875 -1.234375 18.921875 -2.140625 C 18.921875 -2.660156 18.679688 -3.488281 18.203125 -4.625 L 16.75 -8.109375 L 7.359375 -8.109375 L 5.71875 -4.296875 C 5.3125 -3.367188 5.109375 -2.660156 5.109375 -2.171875 C 5.109375 -1.296875 6.046875 -0.789062 7.921875 -0.65625 L 7.921875 0 L 0.28125 0 L 0.28125 -0.65625 C 1.207031 -0.820312 1.890625 -1.070312 2.328125 -1.40625 C 2.773438 -1.75 3.421875 -2.894531 4.265625 -4.84375 L 12.796875 -24.78125 L 13.40625 -24.78125 L 21.84375 -4.625 C 22.425781 -3.21875 22.988281 -2.222656 23.53125 -1.640625 C 24.070312 -1.054688 24.898438 -0.726562 26.015625 -0.65625 Z M 16.234375 -9.4375 L 12.125 -19.21875 L 7.921875 -9.4375 Z M 16.234375 -9.4375 "/></g></g></g><g fill="#f5f0eb" fill-opacity="1"><g transform="translate(446.18245, 306.6171)"><g><path d="M 24.734375 0 L 18.265625 0 L 10.0625 -11.328125 C 9.457031 -11.296875 8.960938 -11.28125 8.578125 -11.28125 C 8.378906 -11.28125 8.03125 -11.296875 7.53125 -11.328125 L 7.53125 -4.296875 C 7.53125 -2.679688 7.75 -1.671875 8.1875 -1.265625 C 8.632812 -0.859375 9.257812 -0.65625 10.0625 -0.65625 L 11 -0.65625 L 11 0 L 0.625 0 L 0.625 -0.65625 L 1.546875 -0.65625 C 2.546875 -0.65625 3.222656 -0.914062 3.578125 -1.4375 C 3.929688 -1.957031 4.109375 -2.910156 4.109375 -4.296875 L 4.109375 -19.9375 C 4.109375 -21.539062 3.882812 -22.546875 3.4375 -22.953125 C 2.988281 -23.359375 2.359375 -23.5625 1.546875 -23.5625 L 0.625 -23.5625 L 0.625 -24.234375 L 9.453125 -24.234375 C 11.617188 -24.234375 13.359375 -24.09375 14.671875 -23.8125 C 15.984375 -23.53125 17.117188 -22.851562 18.078125 -21.78125 C 19.046875 -20.707031 19.53125 -19.441406 19.53125 -17.984375 C 19.53125 -14.734375 17.539062 -12.664062 13.5625 -11.78125 L 18.5625 -4.84375 C 19.8125 -3.125 20.867188 -2.023438 21.734375 -1.546875 C 22.609375 -1.066406 23.609375 -0.769531 24.734375 -0.65625 Z M 7.53125 -22.53125 L 7.53125 -12.453125 L 8.53125 -12.453125 C 10.664062 -12.453125 12.363281 -12.910156 13.625 -13.828125 C 14.882812 -14.753906 15.515625 -16.0625 15.515625 -17.75 C 15.515625 -19.5 14.988281 -20.789062 13.9375 -21.625 C 12.882812 -22.457031 11.679688 -22.875 10.328125 -22.875 C 9.179688 -22.875 8.25 -22.757812 7.53125 -22.53125 Z M 7.53125 -22.53125 "/></g></g></g><g fill="#f5f0eb" fill-opacity="1"><g transform="translate(470.581537, 306.6171)"><g><path d="M 21.5625 -6.578125 L 19.484375 0 L 0.734375 0 L 0.734375 -0.65625 L 1.640625 -0.65625 C 2.660156 -0.65625 3.34375 -0.914062 3.6875 -1.4375 C 4.039062 -1.957031 4.21875 -2.910156 4.21875 -4.296875 L 4.21875 -19.9375 C 4.21875 -21.550781 3.988281 -22.554688 3.53125 -22.953125 C 3.082031 -23.359375 2.453125 -23.5625 1.640625 -23.5625 L 0.734375 -23.5625 L 0.734375 -24.234375 L 11.703125 -24.234375 L 11.703125 -23.5625 C 10.691406 -23.5625 9.882812 -23.46875 9.28125 -23.28125 C 8.6875 -23.09375 8.265625 -22.804688 8.015625 -22.421875 C 7.765625 -22.035156 7.640625 -21.070312 7.640625 -19.53125 L 7.640625 -4.296875 C 7.640625 -3.085938 7.816406 -2.328125 8.171875 -2.015625 C 8.523438 -1.703125 9.59375 -1.546875 11.375 -1.546875 L 13.15625 -1.546875 C 14.59375 -1.546875 15.71875 -1.628906 16.53125 -1.796875 C 17.351562 -1.972656 18.125 -2.414062 18.84375 -3.125 C 19.570312 -3.832031 20.285156 -5.023438 20.984375 -6.703125 Z M 21.5625 -6.578125 "/></g></g></g><g fill="#f5f0eb" fill-opacity="1"><g transform="translate(492.923684, 306.6171)"><g><path d="M 31.765625 0 L 21.484375 0 L 21.484375 -0.65625 L 22.328125 -0.65625 C 23.085938 -0.65625 23.707031 -0.84375 24.1875 -1.21875 C 24.664062 -1.601562 24.90625 -2.597656 24.90625 -4.203125 L 24.90625 -20.390625 L 15.5625 0 L 14.96875 0 L 5.609375 -20.390625 L 5.609375 -4.203125 C 5.609375 -2.597656 5.828125 -1.601562 6.265625 -1.21875 C 6.710938 -0.84375 7.351562 -0.65625 8.1875 -0.65625 L 9.046875 -0.65625 L 9.046875 0 L 0.609375 0 L 0.609375 -0.65625 L 1.46875 -0.65625 C 2.207031 -0.65625 2.816406 -0.84375 3.296875 -1.21875 C 3.785156 -1.601562 4.03125 -2.597656 4.03125 -4.203125 L 4.03125 -20.03125 C 4.03125 -21.28125 3.828125 -22.179688 3.421875 -22.734375 C 3.015625 -23.285156 2.078125 -23.5625 0.609375 -23.5625 L 0.609375 -24.234375 L 7.46875 -24.234375 L 16.25 -5.265625 L 24.90625 -24.234375 L 31.765625 -24.234375 L 31.765625 -23.5625 L 30.921875 -23.5625 C 30.171875 -23.5625 29.550781 -23.367188 29.0625 -22.984375 C 28.582031 -22.597656 28.34375 -21.613281 28.34375 -20.03125 L 28.34375 -4.203125 C 28.34375 -2.617188 28.566406 -1.628906 29.015625 -1.234375 C 29.460938 -0.847656 30.097656 -0.65625 30.921875 -0.65625 L 31.765625 -0.65625 Z M 31.765625 0 "/></g></g></g><g fill="#f5f0eb" fill-opacity="1"><g transform="translate(525.4558, 306.6171)"><g><path d="M 26.015625 0 L 16.453125 0 L 16.453125 -0.65625 C 18.097656 -0.738281 18.921875 -1.234375 18.921875 -2.140625 C 18.921875 -2.660156 18.679688 -3.488281 18.203125 -4.625 L 16.75 -8.109375 L 7.359375 -8.109375 L 5.71875 -4.296875 C 5.3125 -3.367188 5.109375 -2.660156 5.109375 -2.171875 C 5.109375 -1.296875 6.046875 -0.789062 7.921875 -0.65625 L 7.921875 0 L 0.28125 0 L 0.28125 -0.65625 C 1.207031 -0.820312 1.890625 -1.070312 2.328125 -1.40625 C 2.773438 -1.75 3.421875 -2.894531 4.265625 -4.84375 L 12.796875 -24.78125 L 13.40625 -24.78125 L 21.84375 -4.625 C 22.425781 -3.21875 22.988281 -2.222656 23.53125 -1.640625 C 24.070312 -1.054688 24.898438 -0.726562 26.015625 -0.65625 Z M 16.234375 -9.4375 L 12.125 -19.21875 L 7.921875 -9.4375 Z M 16.234375 -9.4375 "/></g></g></g><g fill="#f5f0eb" fill-opacity="1"><g transform="translate(551.871229, 306.6171)"><g><path d="M 25.90625 -23.5625 L 25.046875 -23.5625 C 24.015625 -23.5625 23.328125 -23.304688 22.984375 -22.796875 C 22.648438 -22.296875 22.484375 -21.375 22.484375 -20.03125 L 22.484375 0.390625 L 21.828125 0.390625 L 5.859375 -19.109375 L 5.859375 -4.203125 C 5.859375 -2.609375 6.078125 -1.617188 6.515625 -1.234375 C 6.953125 -0.847656 7.59375 -0.65625 8.4375 -0.65625 L 9.28125 -0.65625 L 9.28125 0 L 0.859375 0 L 0.859375 -0.65625 L 1.6875 -0.65625 C 2.4375 -0.65625 3.054688 -0.84375 3.546875 -1.21875 C 4.046875 -1.601562 4.296875 -2.597656 4.296875 -4.203125 L 4.296875 -21.046875 C 3.484375 -21.992188 2.71875 -22.648438 2 -23.015625 C 1.28125 -23.378906 0.453125 -23.5625 -0.484375 -23.5625 L -0.484375 -24.234375 L 6.09375 -24.234375 L 20.890625 -6.046875 L 20.890625 -20.03125 C 20.890625 -21.613281 20.664062 -22.597656 20.21875 -22.984375 C 19.78125 -23.367188 19.144531 -23.5625 18.3125 -23.5625 L 17.46875 -23.5625 L 17.46875 -24.234375 L 25.90625 -24.234375 Z M 25.90625 -23.5625 "/></g></g></g><g fill="#f5f0eb" fill-opacity="1"><g transform="translate(578.286669, 306.6171)"><g/></g></g><g fill="#f5f0eb" fill-opacity="1"><g transform="translate(587.434635, 306.6171)"><g><path d="M 18.375 -1.515625 L 13.515625 0.5 L 12.703125 0.5 L 12.703125 -1.84375 C 11.210938 -0.28125 9.609375 0.5 7.890625 0.5 C 5.828125 0.5 4.195312 -0.320312 3 -1.96875 C 1.8125 -3.625 1.21875 -5.46875 1.21875 -7.5 C 1.21875 -9.71875 1.914062 -11.832031 3.3125 -13.84375 C 4.71875 -15.851562 6.660156 -16.859375 9.140625 -16.859375 C 10.566406 -16.859375 11.753906 -16.398438 12.703125 -15.484375 L 12.703125 -18.515625 C 12.703125 -20.503906 12.613281 -21.757812 12.4375 -22.28125 C 12.269531 -22.800781 11.9375 -23.0625 11.4375 -23.0625 C 11.125 -23.0625 10.710938 -22.96875 10.203125 -22.78125 L 9.96875 -23.40625 L 14.84375 -25.40625 L 15.640625 -25.40625 L 15.640625 -6.484375 C 15.640625 -4.671875 15.722656 -3.441406 15.890625 -2.796875 C 16.054688 -2.160156 16.394531 -1.84375 16.90625 -1.84375 C 17.21875 -1.84375 17.644531 -1.941406 18.1875 -2.140625 Z M 12.703125 -3.078125 L 12.703125 -11.515625 C 12.703125 -12.660156 12.320312 -13.648438 11.5625 -14.484375 C 10.8125 -15.328125 9.929688 -15.75 8.921875 -15.75 C 7.722656 -15.75 6.679688 -15.15625 5.796875 -13.96875 C 4.921875 -12.78125 4.484375 -11.097656 4.484375 -8.921875 C 4.484375 -6.890625 4.9375 -5.140625 5.84375 -3.671875 C 6.757812 -2.203125 8 -1.46875 9.5625 -1.46875 C 10.632812 -1.46875 11.679688 -2.003906 12.703125 -3.078125 Z M 12.703125 -3.078125 "/></g></g></g><g fill="#f5f0eb" fill-opacity="1"><g transform="translate(605.730567, 306.6171)"><g><path d="M 15.203125 -5.96875 C 14.921875 -4.113281 14.144531 -2.570312 12.875 -1.34375 C 11.601562 -0.113281 10.144531 0.5 8.5 0.5 C 6.375 0.5 4.648438 -0.3125 3.328125 -1.9375 C 2.015625 -3.5625 1.359375 -5.570312 1.359375 -7.96875 C 1.359375 -10.582031 2.03125 -12.71875 3.375 -14.375 C 4.726562 -16.03125 6.578125 -16.859375 8.921875 -16.859375 C 11.035156 -16.859375 12.609375 -16.1875 13.640625 -14.84375 C 14.679688 -13.5 15.203125 -11.953125 15.203125 -10.203125 L 3.890625 -10.203125 C 3.890625 -7.984375 4.429688 -6.128906 5.515625 -4.640625 C 6.609375 -3.148438 8.054688 -2.40625 9.859375 -2.40625 C 12.078125 -2.40625 13.671875 -3.710938 14.640625 -6.328125 Z M 11.46875 -11.234375 C 11.3125 -14.140625 10.128906 -15.59375 7.921875 -15.59375 C 6.835938 -15.59375 5.925781 -15.179688 5.1875 -14.359375 C 4.445312 -13.546875 4.015625 -12.503906 3.890625 -11.234375 Z M 11.46875 -11.234375 "/></g></g></g><g fill="#f5f0eb" fill-opacity="1"><g transform="translate(621.96956, 306.6171)"><g><path d="M 2.453125 0.25 L 1.859375 0.25 L 1.859375 -5.59375 L 2.453125 -5.59375 C 3.117188 -2.238281 4.8125 -0.5625 7.53125 -0.5625 C 8.226562 -0.5625 8.863281 -0.769531 9.4375 -1.1875 C 10.019531 -1.613281 10.3125 -2.222656 10.3125 -3.015625 C 10.3125 -4.003906 9.800781 -4.882812 8.78125 -5.65625 C 7.238281 -6.4375 5.332031 -7.566406 3.0625 -9.046875 C 2.207031 -9.859375 1.78125 -10.878906 1.78125 -12.109375 C 1.78125 -13.515625 2.25 -14.65625 3.1875 -15.53125 C 4.132812 -16.40625 5.320312 -16.84375 6.75 -16.84375 C 7.363281 -16.84375 8.144531 -16.707031 9.09375 -16.4375 C 9.675781 -16.257812 10.082031 -16.171875 10.3125 -16.171875 C 10.625 -16.171875 10.894531 -16.394531 11.125 -16.84375 L 11.71875 -16.84375 L 11.71875 -11.28125 L 11.125 -11.28125 C 10.351562 -14.289062 8.875 -15.796875 6.6875 -15.796875 C 6.007812 -15.796875 5.375 -15.609375 4.78125 -15.234375 C 4.1875 -14.867188 3.890625 -14.347656 3.890625 -13.671875 C 3.890625 -12.390625 4.832031 -11.296875 6.71875 -10.390625 L 9.328125 -9.140625 C 11.742188 -7.972656 12.953125 -6.414062 12.953125 -4.46875 C 12.953125 -3.070312 12.421875 -1.894531 11.359375 -0.9375 C 10.296875 0.0195312 9.003906 0.5 7.484375 0.5 C 6.460938 0.5 5.320312 0.316406 4.0625 -0.046875 C 3.644531 -0.160156 3.316406 -0.21875 3.078125 -0.21875 C 2.816406 -0.21875 2.609375 -0.0625 2.453125 0.25 Z M 2.453125 0.25 "/></g></g></g><g fill="#f5f0eb" fill-opacity="1"><g transform="translate(636.205743, 306.6171)"><g><path d="M 7.109375 -23.609375 C 7.109375 -22.390625 6.507812 -21.78125 5.3125 -21.78125 C 4.09375 -21.78125 3.484375 -22.390625 3.484375 -23.609375 C 3.484375 -24.804688 4.09375 -25.40625 5.3125 -25.40625 C 6.507812 -25.40625 7.109375 -24.804688 7.109375 -23.609375 Z M 9.265625 0 L 1.328125 0 L 1.328125 -0.65625 C 2.328125 -0.65625 2.988281 -0.851562 3.3125 -1.25 C 3.644531 -1.644531 3.8125 -2.457031 3.8125 -3.6875 L 3.8125 -10 C 3.8125 -11.894531 3.742188 -13.113281 3.609375 -13.65625 C 3.484375 -14.195312 3.125 -14.46875 2.53125 -14.46875 C 2.195312 -14.46875 1.796875 -14.378906 1.328125 -14.203125 L 1.0625 -14.84375 L 6.015625 -16.84375 L 6.796875 -16.84375 L 6.796875 -3.6875 C 6.796875 -2.46875 6.957031 -1.65625 7.28125 -1.25 C 7.613281 -0.851562 8.273438 -0.65625 9.265625 -0.65625 Z M 9.265625 0 "/></g></g></g><g fill="#f5f0eb" fill-opacity="1"><g transform="translate(646.368635, 306.6171)"><g><path d="M 14.328125 -14.109375 C 14.992188 -13.234375 15.328125 -12.132812 15.328125 -10.8125 C 15.328125 -9.1875 14.71875 -7.851562 13.5 -6.8125 C 12.28125 -5.78125 10.738281 -5.265625 8.875 -5.265625 C 8.0625 -5.265625 7.238281 -5.382812 6.40625 -5.625 C 5.507812 -4.851562 5.0625 -4.171875 5.0625 -3.578125 C 5.0625 -3.171875 5.296875 -2.890625 5.765625 -2.734375 C 6.242188 -2.585938 7.320312 -2.492188 9 -2.453125 C 11.21875 -2.398438 12.84375 -2.3125 13.875 -2.1875 C 14.914062 -2.0625 15.765625 -1.691406 16.421875 -1.078125 C 17.085938 -0.472656 17.421875 0.382812 17.421875 1.5 C 17.421875 2.5 17.035156 3.5 16.265625 4.5 C 15.492188 5.507812 14.414062 6.328125 13.03125 6.953125 C 11.65625 7.578125 10.0625 7.890625 8.25 7.890625 C 6.3125 7.890625 4.632812 7.523438 3.21875 6.796875 C 1.800781 6.078125 1.09375 5.304688 1.09375 4.484375 C 1.09375 4.046875 1.332031 3.492188 1.8125 2.828125 C 2.300781 2.160156 3.148438 1.164062 4.359375 -0.15625 C 3.234375 -0.820312 2.671875 -1.476562 2.671875 -2.125 C 2.671875 -3.101562 3.617188 -4.382812 5.515625 -5.96875 C 3.441406 -6.976562 2.40625 -8.628906 2.40625 -10.921875 C 2.40625 -12.804688 3.082031 -14.265625 4.4375 -15.296875 C 5.800781 -16.328125 7.300781 -16.84375 8.9375 -16.84375 C 10.5 -16.84375 11.851562 -16.460938 13 -15.703125 L 16.453125 -15.703125 C 17.046875 -15.703125 17.390625 -15.65625 17.484375 -15.5625 C 17.585938 -15.476562 17.640625 -15.269531 17.640625 -14.9375 C 17.640625 -14.550781 17.585938 -14.316406 17.484375 -14.234375 C 17.378906 -14.148438 17.035156 -14.109375 16.453125 -14.109375 Z M 12.203125 -10.375 C 12.203125 -12.425781 11.820312 -13.875 11.0625 -14.71875 C 10.3125 -15.5625 9.503906 -15.984375 8.640625 -15.984375 C 6.554688 -15.984375 5.515625 -14.554688 5.515625 -11.703125 C 5.515625 -10.023438 5.835938 -8.675781 6.484375 -7.65625 C 7.140625 -6.644531 8.007812 -6.140625 9.09375 -6.140625 C 11.164062 -6.140625 12.203125 -7.550781 12.203125 -10.375 Z M 5.34375 0 C 4.207031 1.476562 3.640625 2.523438 3.640625 3.140625 C 3.640625 3.554688 3.847656 3.957031 4.265625 4.34375 C 4.691406 4.738281 5.378906 5.070312 6.328125 5.34375 C 7.285156 5.613281 8.457031 5.75 9.84375 5.75 C 11.476562 5.75 12.929688 5.445312 14.203125 4.84375 C 15.484375 4.25 16.125 3.363281 16.125 2.1875 C 16.125 1.570312 15.804688 1.128906 15.171875 0.859375 C 14.535156 0.597656 13.316406 0.445312 11.515625 0.40625 C 8.828125 0.34375 6.769531 0.207031 5.34375 0 Z M 5.34375 0 "/></g></g></g><g fill="#f5f0eb" fill-opacity="1"><g transform="translate(664.664567, 306.6171)"><g><path d="M 18.140625 0 L 10.046875 0 L 10.046875 -0.65625 L 10.375 -0.65625 C 10.976562 -0.65625 11.460938 -0.757812 11.828125 -0.96875 C 12.203125 -1.175781 12.4375 -1.4375 12.53125 -1.75 C 12.632812 -2.0625 12.6875 -2.707031 12.6875 -3.6875 L 12.6875 -10.390625 C 12.6875 -13.222656 11.84375 -14.640625 10.15625 -14.640625 C 8.738281 -14.640625 7.328125 -13.867188 5.921875 -12.328125 L 5.921875 -3.6875 C 5.921875 -2.476562 6.0625 -1.671875 6.34375 -1.265625 C 6.625 -0.859375 7.367188 -0.65625 8.578125 -0.65625 L 8.578125 0 L 0.484375 0 L 0.484375 -0.65625 L 0.84375 -0.65625 C 1.675781 -0.65625 2.238281 -0.875 2.53125 -1.3125 C 2.820312 -1.75 2.96875 -2.539062 2.96875 -3.6875 L 2.96875 -9.765625 C 2.96875 -11.710938 2.882812 -12.984375 2.71875 -13.578125 C 2.5625 -14.171875 2.210938 -14.46875 1.671875 -14.46875 C 1.335938 -14.46875 0.941406 -14.378906 0.484375 -14.203125 L 0.21875 -14.84375 L 5.140625 -16.84375 L 5.921875 -16.84375 L 5.921875 -13.390625 C 7.828125 -15.691406 9.648438 -16.84375 11.390625 -16.84375 C 14.210938 -16.84375 15.625 -14.785156 15.625 -10.671875 L 15.625 -3.6875 C 15.625 -2.539062 15.765625 -1.75 16.046875 -1.3125 C 16.328125 -0.875 17.023438 -0.65625 18.140625 -0.65625 Z M 18.140625 0 "/></g></g></g><g fill="#f5f0eb" fill-opacity="1"><g transform="translate(682.960499, 306.6171)"><g><path d="M 2.453125 0.25 L 1.859375 0.25 L 1.859375 -5.59375 L 2.453125 -5.59375 C 3.117188 -2.238281 4.8125 -0.5625 7.53125 -0.5625 C 8.226562 -0.5625 8.863281 -0.769531 9.4375 -1.1875 C 10.019531 -1.613281 10.3125 -2.222656 10.3125 -3.015625 C 10.3125 -4.003906 9.800781 -4.882812 8.78125 -5.65625 C 7.238281 -6.4375 5.332031 -7.566406 3.0625 -9.046875 C 2.207031 -9.859375 1.78125 -10.878906 1.78125 -12.109375 C 1.78125 -13.515625 2.25 -14.65625 3.1875 -15.53125 C 4.132812 -16.40625 5.320312 -16.84375 6.75 -16.84375 C 7.363281 -16.84375 8.144531 -16.707031 9.09375 -16.4375 C 9.675781 -16.257812 10.082031 -16.171875 10.3125 -16.171875 C 10.625 -16.171875 10.894531 -16.394531 11.125 -16.84375 L 11.71875 -16.84375 L 11.71875 -11.28125 L 11.125 -11.28125 C 10.351562 -14.289062 8.875 -15.796875 6.6875 -15.796875 C 6.007812 -15.796875 5.375 -15.609375 4.78125 -15.234375 C 4.1875 -14.867188 3.890625 -14.347656 3.890625 -13.671875 C 3.890625 -12.390625 4.832031 -11.296875 6.71875 -10.390625 L 9.328125 -9.140625 C 11.742188 -7.972656 12.953125 -6.414062 12.953125 -4.46875 C 12.953125 -3.070312 12.421875 -1.894531 11.359375 -0.9375 C 10.296875 0.0195312 9.003906 0.5 7.484375 0.5 C 6.460938 0.5 5.320312 0.316406 4.0625 -0.046875 C 3.644531 -0.160156 3.316406 -0.21875 3.078125 -0.21875 C 2.816406 -0.21875 2.609375 -0.0625 2.453125 0.25 Z M 2.453125 0.25 "/></g></g></g></svg>